<svg xmlns="http://www.w3.org/2000/svg" viewBox="0 0 439 150" width="439" height="150">
<g transform="translate(36,100)"><path d="M36.2548828125 -33.3984375Q39.5947265625 -33.3984375 39.5947265625 -31.11328125Q39.5947265625 -29.8828125 39.0234375 -29.3115234375Q38.4521484375 -28.740234375 36.58447265625 -25.51025390625Q34.716796875 -22.2802734375 32.45361328125 -17.24853515625Q30.1904296875 -12.216796875 29.53125 -8.6572265625Q29.3994140625 -8.2177734375 29.3994140625 -7.4267578125Q29.3994140625 -5.009765625 30.7177734375 -5.009765625Q32.0361328125 -5.009765625 33.837890625 -6.26220703125Q35.6396484375 -7.5146484375 37.0458984375 -8.94287109375Q38.4521484375 -10.37109375 39.79248046875 -11.865234375Q41.1328125 -13.359375 41.396484375 -13.5791015625Q41.66015625 -13.798828125 42.1875 -13.798828125Q43.0224609375 -13.798828125 43.1982421875 -12.5244140625Q43.3740234375 -11.25 43.3740234375 -9.8876953125Q43.3740234375 -8.525390625 43.1103515625 -7.998046875Q41.8359375 -5.4931640625 37.50732421875 -1.9775390625Q33.1787109375 1.5380859375 29.64111328125 1.5380859375Q26.103515625 1.5380859375 24.43359375 -0.615234375Q22.763671875 -2.7685546875 22.763671875 -5.38330078125Q22.763671875 -7.998046875 23.642578125 -9.9755859375Q19.9951171875 -5.2294921875 15.27099609375 -1.93359375Q10.546875 1.3623046875 7.55859375 1.3623046875Q4.5703125 1.3623046875 2.6806640625 -0.439453125Q0.263671875 -2.6806640625 0.263671875 -6.65771484375Q0.263671875 -10.634765625 2.04345703125 -14.65576171875Q3.8232421875 -18.6767578125 6.7236328125 -21.99462890625Q9.6240234375 -25.3125 13.095703125 -28.037109375Q20.390625 -33.75 26.54296875 -33.75Q28.916015625 -33.75 30.41015625 -32.958984375Q31.904296875 -32.16796875 32.2998046875 -30.9814453125Q33.3544921875 -32.5634765625 34.07958984375 -32.98095703125Q34.8046875 -33.3984375 36.2548828125 -33.3984375ZM30.41015625 -28.5205078125Q22.8955078125 -28.5205078125 14.853515625 -20.1708984375Q11.9970703125 -17.1826171875 9.60205078125 -13.0078125Q7.20703125 -8.8330078125 7.20703125 -7.294921875Q7.20703125 -5.7568359375 8.0859375 -5.7568359375Q9.31640625 -5.7568359375 14.94140625 -10.61279296875Q20.56640625 -15.46875 22.412109375 -17.75390625Q24.43359375 -20.302734375 30.41015625 -28.5205078125Z M86.7919921875 -48.076171875Q76.81640625 -31.8603515625 71.1474609375 -20.654296875Q65.478515625 -9.4482421875 65.478515625 -7.119140625V-6.767578125Q65.478515625 -4.9658203125 66.796875 -4.9658203125Q68.115234375 -4.9658203125 69.98291015625 -6.1962890625Q71.8505859375 -7.4267578125 73.2568359375 -8.8330078125Q74.6630859375 -10.2392578125 76.09130859375 -11.75537109375Q77.51953125 -13.271484375 77.8271484375 -13.53515625Q78.134765625 -13.798828125 78.6181640625 -13.798828125Q79.365234375 -13.798828125 79.5849609375 -12.85400390625Q79.8046875 -11.9091796875 79.8046875 -10.21728515625Q79.8046875 -8.525390625 79.541015625 -7.998046875Q78.2666015625 -5.537109375 73.93798828125 -1.99951171875Q69.609375 1.5380859375 65.7421875 1.5380859375Q59.150390625 1.5380859375 59.150390625 -4.04296875Q59.150390625 -7.5146484375 61.787109375 -13.1396484375Q58.2275390625 -8.525390625 54.5361328125 -5.2734375Q47.6806640625 0.703125 42.626953125 0.703125Q39.814453125 0.703125 38.47412109375 -1.2744140625Q37.1337890625 -3.251953125 37.1337890625 -6.96533203125Q37.1337890625 -10.6787109375 40.0341796875 -15.8642578125Q42.9345703125 -21.0498046875 47.26318359375 -25.20263671875Q51.591796875 -29.35546875 56.865234375 -32.14599609375Q62.138671875 -34.9365234375 66.5771484375 -34.9365234375Q67.9833984375 -34.9365234375 69.873046875 -33.22265625Q71.1474609375 -35.244140625 74.5751953125 -41.30859375Q85.341796875 -59.4580078125 88.8134765625 -63.45703125Q90.6591796875 -65.8740234375 94.5703125 -65.8740234375Q95.4052734375 -65.8740234375 95.888671875 -65.3466796875Q96.3720703125 -64.8193359375 96.3720703125 -64.27001953125Q96.3720703125 -63.720703125 95.51513671875 -62.24853515625Q94.658203125 -60.7763671875 91.58203125 -55.83251953125Q88.505859375 -50.888671875 86.7919921875 -48.076171875ZM67.1923828125 -29.091796875Q60.8642578125 -27.685546875 55.4150390625 -23.203125Q49.9658203125 -18.720703125 47.2412109375 -13.82080078125Q44.5166015625 -8.9208984375 44.5166015625 -7.470703125Q44.5166015625 -6.0205078125 45.1318359375 -6.0205078125Q47.7685546875 -6.0205078125 58.18359375 -17.7978515625Q63.369140625 -23.5986328125 67.1923828125 -29.091796875Z M136.3359375 -33.57421875Q138.0498046875 -35.5517578125 140.5986328125 -35.68359375Q141.345703125 -35.7275390625 142.4443359375 -35.7275390625Q143.54296875 -35.7275390625 143.806640625 -35.44189453125Q144.0703125 -35.15625 144.2900390625 -34.365234375Q144.509765625 -33.57421875 144.5537109375 -33.486328125Q144.59765625 -33.3984375 144.59765625 -33.20068359375Q144.59765625 -33.0029296875 144.3779296875 -32.71728515625Q144.158203125 -32.431640625 143.87255859375 -32.16796875Q143.5869140625 -31.904296875 143.54296875 -31.8603515625Q133.8310546875 -17.9296875 123.6796875 -0.087890625Q134.138671875 -9.3603515625 142.400390625 -13.4033203125Q142.927734375 -13.6669921875 143.4111328125 -13.6669921875Q144.1142578125 -13.6669921875 144.333984375 -12.76611328125Q144.5537109375 -11.865234375 144.5537109375 -10.1953125Q144.5537109375 -8.525390625 144.35595703125 -8.1298828125Q144.158203125 -7.734375 142.3125 -6.5478515625Q140.466796875 -5.361328125 137.5224609375 -3.4716796875Q134.578125 -1.58203125 131.2822265625 0.703125Q123.3720703125 6.1962890625 118.2744140625 12.2607421875Q111.6826171875 20.21484375 108.826171875 25.0927734375Q107.771484375 26.982421875 105.2666015625 26.982421875Q100.30078125 26.982421875 100.30078125 22.2802734375Q100.30078125 17.490234375 105.0029296875 12.48046875Q108.5185546875 8.7451171875 111.462890625 6.3720703125Q114.4072265625 3.9990234375 114.6708984375 3.69140625Q117.9228515625 -1.1865234375 123.50390625 -10.1513671875Q118.7578125 -5.185546875 114.29736328125 -2.2412109375Q109.8369140625 0.703125 107.6396484375 0.703125Q100.916015625 0.703125 100.916015625 -5.0537109375Q100.916015625 -9.6240234375 103.2451171875 -14.2822265625Q105.57421875 -18.9404296875 109.2216796875 -22.60986328125Q112.869140625 -26.279296875 117.10986328125 -29.20166015625Q121.3505859375 -32.1240234375 125.4375 -33.7060546875Q129.5244140625 -35.2880859375 132.5126953125 -35.2880859375Q135.5009765625 -35.2880859375 136.3359375 -33.57421875ZM133.8310546875 -30.322265625Q128.7333984375 -29.2236328125 124.2509765625 -26.69677734375Q119.7685546875 -24.169921875 116.8681640625 -21.29150390625Q113.9677734375 -18.4130859375 111.8583984375 -15.380859375Q107.9033203125 -9.7119140625 107.9033203125 -6.591796875Q107.9033203125 -5.8447265625 108.27685546875 -5.8447265625Q108.650390625 -5.8447265625 109.94677734375 -6.6357421875Q111.2431640625 -7.4267578125 113.6162109375 -9.33837890625Q115.9892578125 -11.25 118.8896484375 -13.88671875Q125.61328125 -20.0830078125 133.8310546875 -30.322265625Z M155.4521484375 -23.9501953125Q165.8232421875 -35.7275390625 173.1181640625 -35.7275390625Q174.919921875 -35.7275390625 176.08447265625 -34.65087890625Q177.2490234375 -33.57421875 177.2490234375 -31.8603515625Q177.2490234375 -30.146484375 174.81005859375 -26.12548828125Q172.37109375 -22.1044921875 170.3056640625 -19.3359375Q169.20703125 -17.9296875 167.82275390625 -17.9296875Q166.4384765625 -17.9296875 165.66943359375 -18.9404296875Q164.900390625 -19.951171875 164.900390625 -21.3134765625Q164.900390625 -24.345703125 168.15234375 -28.1689453125L168.064453125 -28.2568359375Q166.6142578125 -28.125 160.87939453125 -22.5439453125Q155.14453125 -16.962890625 151.12353515625 -12.54638671875Q147.1025390625 -8.1298828125 142.400390625 -1.8017578125Q141.0380859375 0.087890625 140.09326171875 0.087890625Q139.1484375 0.087890625 137.58837890625 -0.50537109375Q136.0283203125 -1.0986328125 135.69873046875 -1.3623046875Q135.369140625 -1.6259765625 135.369140625 -2.2412109375Q135.369140625 -2.8564453125 135.720703125 -3.66943359375Q136.072265625 -4.482421875 137.01708984375 -5.9765625Q137.9619140625 -7.470703125 139.87353515625 -10.810546875Q141.78515625 -14.150390625 145.828125 -20.91796875Q149.87109375 -27.685546875 150.662109375 -29.091796875Q152.33203125 -31.9921875 153.38671875 -33.310546875Q155.3642578125 -35.8154296875 160.06640625 -35.8154296875Q161.12109375 -35.8154296875 161.12109375 -34.4970703125Q161.12109375 -32.431640625 157.2978515625 -26.71875Z M201.111328125 -48.251953125Q201.111328125 -45.7470703125 198.7822265625 -43.22021484375Q196.453125 -40.693359375 193.92626953125 -40.693359375Q191.3994140625 -40.693359375 191.3994140625 -43.330078125Q191.3994140625 -45.966796875 193.61865234375 -48.36181640625Q195.837890625 -50.7568359375 198.5185546875 -50.7568359375Q199.705078125 -50.7568359375 200.408203125 -50.09765625Q201.111328125 -49.4384765625 201.111328125 -48.251953125ZM193.9921875 -9.8876953125Q193.9921875 -8.5693359375 193.728515625 -7.998046875Q191.5751953125 -3.603515625 186.873046875 -0.90087890625Q182.1708984375 1.8017578125 178.69921875 1.8017578125Q175.2275390625 1.8017578125 172.72265625 -0.52734375Q170.2177734375 -2.8564453125 170.2177734375 -5.2734375Q170.2177734375 -7.6904296875 172.634765625 -12.3046875Q175.0517578125 -16.9189453125 177.46875 -20.830078125Q179.8857421875 -24.7412109375 179.8857421875 -25.07080078125Q179.8857421875 -25.400390625 178.98486328125 -26.3671875Q178.083984375 -27.333984375 178.083984375 -27.79541015625Q178.083984375 -28.2568359375 179.90771484375 -30.21240234375Q181.7314453125 -32.16796875 184.34619140625 -34.07958984375Q186.9609375 -35.9912109375 188.34521484375 -35.9912109375Q189.7294921875 -35.9912109375 190.828125 -34.7607421875Q191.9267578125 -33.5302734375 191.9267578125 -32.51953125Q191.9267578125 -31.5087890625 181.4677734375 -13.4912109375Q181.3359375 -13.2275390625 180.74267578125 -12.32666015625Q180.1494140625 -11.42578125 179.81982421875 -10.83251953125Q179.490234375 -10.2392578125 179.05078125 -9.404296875Q178.171875 -7.646484375 178.171875 -6.4599609375Q178.171875 -4.9658203125 180.193359375 -4.9658203125Q182.21484375 -4.9658203125 184.39013671875 -6.35009765625Q186.5654296875 -7.734375 188.1474609375 -9.404296875Q192.2783203125 -13.8427734375 192.849609375 -13.8427734375Q193.9921875 -13.8427734375 193.9921875 -9.8876953125Z M238.15722656249997 -48.076171875Q228.18164062499997 -31.8603515625 222.51269531249997 -20.654296875Q216.84374999999997 -9.4482421875 216.84374999999997 -7.119140625V-6.767578125Q216.84374999999997 -4.9658203125 218.16210937499997 -4.9658203125Q219.48046874999997 -4.9658203125 221.34814453124997 -6.1962890625Q223.21582031249997 -7.4267578125 224.62207031249997 -8.8330078125Q226.02832031249997 -10.2392578125 227.45654296874997 -11.75537109375Q228.88476562499997 -13.271484375 229.19238281249997 -13.53515625Q229.49999999999997 -13.798828125 229.98339843749997 -13.798828125Q230.73046874999997 -13.798828125 230.95019531249997 -12.85400390625Q231.16992187499997 -11.9091796875 231.16992187499997 -10.21728515625Q231.16992187499997 -8.525390625 230.90624999999997 -7.998046875Q229.63183593749997 -5.537109375 225.30322265624997 -1.99951171875Q220.97460937499997 1.5380859375 217.10742187499997 1.5380859375Q210.51562499999997 1.5380859375 210.51562499999997 -4.04296875Q210.51562499999997 -7.5146484375 213.15234374999997 -13.1396484375Q209.59277343749997 -8.525390625 205.90136718749997 -5.2734375Q199.04589843749997 0.703125 193.99218749999997 0.703125Q191.17968749999997 0.703125 189.83935546874997 -1.2744140625Q188.49902343749997 -3.251953125 188.49902343749997 -6.96533203125Q188.49902343749997 -10.6787109375 191.39941406249997 -15.8642578125Q194.29980468749997 -21.0498046875 198.62841796874997 -25.20263671875Q202.95703124999997 -29.35546875 208.23046874999997 -32.14599609375Q213.50390624999997 -34.9365234375 217.94238281249997 -34.9365234375Q219.34863281249997 -34.9365234375 221.23828124999997 -33.22265625Q222.51269531249997 -35.244140625 225.94042968749997 -41.30859375Q236.70703124999997 -59.4580078125 240.17871093749997 -63.45703125Q242.02441406249997 -65.8740234375 245.93554687499997 -65.8740234375Q246.77050781249997 -65.8740234375 247.25390624999997 -65.3466796875Q247.73730468749997 -64.8193359375 247.73730468749997 -64.27001953125Q247.73730468749997 -63.720703125 246.88037109374997 -62.24853515625Q246.02343749999997 -60.7763671875 242.94726562499997 -55.83251953125Q239.87109374999997 -50.888671875 238.15722656249997 -48.076171875ZM218.55761718749997 -29.091796875Q212.22949218749997 -27.685546875 206.78027343749997 -23.203125Q201.33105468749997 -18.720703125 198.60644531249997 -13.82080078125Q195.88183593749997 -8.9208984375 195.88183593749997 -7.470703125Q195.88183593749997 -6.0205078125 196.49707031249997 -6.0205078125Q199.13378906249997 -6.0205078125 209.54882812499997 -17.7978515625Q214.73437499999997 -23.5986328125 218.55761718749997 -29.091796875Z" fill="#009DAC"/></g>
<g transform="translate(291,41)"><path d="M42.9 0.0 h67.6 l-14.3 16.1 h-67.6 Z" fill="#5FC3CE"/><path d="M28.6 26.0 h39.0 l-14.3 16.1 h-39.0 Z" fill="#009DAC"/><path d="M75.4 26.0 h23.4 l-14.3 16.1 h-23.4 Z" fill="#A5A696"/><path d="M14.3 52.0 h49.4 l-14.3 16.1 h-49.4 Z" fill="#006470"/></g>
</svg>