<svg width="48" height="48" viewBox="0 0 48 48" fill="none" xmlns="http://www.w3.org/2000/svg">
<path d="M0 8.33334C0 3.73096 3.73096 0 8.33333 0H39.6667C44.269 0 48 3.73096 48 8.33333V39.6667C48 44.269 44.269 48 39.6667 48H8.33334C3.73096 48 0 44.269 0 39.6667V8.33334Z" fill="#112029"/>
<path d="M10.3518 10.9314L12.9241 10.5927L14.6901 22.521L12.7911 22.771L12.4859 20.3964L12.4854 20.4312L10.3274 20.7153L9.94256 23.146L8.18164 23.3778L10.3518 10.9314ZM12.2884 18.8067L11.5423 12.8941L11.5078 12.8986L10.5792 19.0318L12.2884 18.8067Z" fill="white"/>
<path d="M15.8135 10.2123L18.7139 9.83051C19.6576 9.70626 20.3612 9.86843 20.8246 10.317C21.288 10.7656 21.5116 11.4832 21.4952 12.4698L21.393 18.6331C21.3766 19.6197 21.1283 20.3994 20.6479 20.9722C20.1676 21.545 19.4555 21.8936 18.5118 22.0178L15.6114 22.3997L15.8135 10.2123ZM18.5061 20.2813C18.8169 20.2404 19.0543 20.1165 19.2186 19.9096C19.3943 19.7011 19.4856 19.388 19.4925 18.9701L19.5976 12.6327C19.6045 12.2149 19.5232 11.9245 19.3537 11.7615C19.1956 11.597 18.9612 11.5352 18.6505 11.5761L17.6837 11.7034L17.5393 20.4086L18.5061 20.2813Z" fill="white"/>
<path d="M22.827 9.28901L28.0061 8.60716L27.9773 10.3482L24.6971 10.78L24.6437 14.001L27.2506 13.6578L27.2217 15.3988L24.6149 15.742L24.5528 19.4853L27.8329 19.0534L27.8041 20.7945L22.6249 21.4763L22.827 9.28901Z" fill="white"/>
<path d="M31.6386 20.4634C30.7064 20.5861 29.9972 20.4131 29.5112 19.9443C29.0251 19.4756 28.7902 18.7537 28.8063 17.7787L28.9126 11.3716C28.9288 10.3967 29.1887 9.60963 29.6925 9.01056C30.1962 8.41148 30.9142 8.05058 31.8465 7.92785C32.7787 7.80512 33.4879 7.97813 33.9739 8.4469C34.46 8.91566 34.6949 9.63754 34.6787 10.6125L34.5725 17.0196C34.5563 17.9946 34.2964 18.7816 33.7926 19.3807C33.2889 19.9797 32.5709 20.3406 31.6386 20.4634ZM31.6675 18.7223C32.3235 18.636 32.6582 18.1923 32.6714 17.3915L32.7817 10.7407C32.795 9.93978 32.4736 9.58253 31.8176 9.66889C31.1616 9.75526 30.8269 10.1989 30.8136 10.9998L30.7034 17.6506C30.6901 18.4514 31.0114 18.8087 31.6675 18.7223Z" fill="white"/>
<path fill-rule="evenodd" clip-rule="evenodd" d="M8.18164 26.604V39.7524H15.9055C17.6517 39.7524 19.189 39.439 20.5174 38.8121C21.8457 38.1703 22.8831 37.2674 23.6293 36.1032C24.3756 34.9241 24.7487 33.5211 24.7487 31.8943C24.7487 30.2823 24.3756 28.8943 23.6293 27.7301C22.8831 26.5659 21.8457 25.6704 20.5174 25.0435C20.4826 25.0267 20.4476 25.0101 20.4126 24.9938L8.18164 26.604ZM15.6816 35.633H13.4652V28.2002H15.6816C16.4279 28.2002 17.0771 28.342 17.6294 28.6256C18.1965 28.9092 18.6368 29.3271 18.9502 29.8793C19.2637 30.4316 19.4204 31.1032 19.4204 31.8943C19.4204 32.7002 19.2637 33.3868 18.9502 33.9539C18.6368 34.5062 18.1965 34.9241 17.6294 35.2077C17.0771 35.4913 16.4279 35.633 15.6816 35.633Z" fill="white"/>
<path d="M28.7152 39.6629C29.9391 39.9614 31.2078 40.1106 32.5212 40.1106C34.148 40.1106 35.4988 39.8718 36.5734 39.3942C37.648 38.9017 38.454 38.2599 38.9913 37.4689C39.5435 36.6629 39.8196 35.7823 39.8196 34.8271C39.8196 34.0062 39.6629 33.3196 39.3495 32.7674C39.0361 32.2151 38.6182 31.7674 38.0958 31.4241C37.5883 31.0808 37.0286 30.8047 36.4167 30.5958C35.8047 30.3868 35.1853 30.2226 34.5585 30.1032C33.9465 29.9838 33.3794 29.8719 32.857 29.7674C32.3495 29.6629 31.9391 29.5361 31.6257 29.3868C31.3122 29.2226 31.1555 29.0062 31.1555 28.7376C31.1555 28.5585 31.2152 28.3943 31.3346 28.245C31.4689 28.0958 31.6854 27.9764 31.9839 27.8868C32.2824 27.7973 32.6854 27.7525 33.1928 27.7525C33.8794 27.7525 34.5809 27.8495 35.2973 28.0435C36.0286 28.2376 36.7824 28.5286 37.5585 28.9167L39.148 25.0883C38.3271 24.6256 37.4017 24.2824 36.3719 24.0585C35.3421 23.8346 34.2973 23.7227 33.2376 23.7227C31.6257 23.7227 30.2749 23.9615 29.1854 24.4391C28.1108 24.9167 27.2973 25.5585 26.7451 26.3644C26.2078 27.1555 25.9391 28.0361 25.9391 29.0062C25.9391 29.842 26.0958 30.5435 26.4093 31.1107C26.7227 31.6629 27.1331 32.1107 27.6406 32.454C28.163 32.7972 28.7302 33.0734 29.3421 33.2823C29.969 33.4913 30.5884 33.6629 31.2003 33.7972C31.8122 33.9166 32.3719 34.036 32.8794 34.1554C33.4018 34.2599 33.8197 34.3942 34.1331 34.5584C34.4465 34.7226 34.6033 34.9465 34.6033 35.2301C34.6033 35.4092 34.5361 35.5659 34.4018 35.7002C34.2674 35.8196 34.051 35.9166 33.7525 35.9912C33.4689 36.0509 33.0734 36.0808 32.566 36.0808C31.7003 36.0808 30.8048 35.9539 29.8794 35.7002C28.969 35.4315 28.1406 35.0808 27.3943 34.648L25.6929 38.4987C26.4839 38.9763 27.4914 39.3644 28.7152 39.6629Z" fill="white"/>
</svg>
