<?xml version="1.0" encoding="UTF-8" standalone="no"?>
<!DOCTYPE svg PUBLIC "-//W3C//DTD SVG 1.1//EN" "http://www.w3.org/Graphics/SVG/1.1/DTD/svg11.dtd">
<svg width="100%" height="100%" viewBox="0 0 236 48" version="1.1" xmlns="http://www.w3.org/2000/svg" xmlns:xlink="http://www.w3.org/1999/xlink" xml:space="preserve" xmlns:serif="http://www.serif.com/" style="fill-rule:evenodd;clip-rule:evenodd;stroke-linejoin:round;stroke-miterlimit:2;">
    <path d="M0,8.333C0,3.731 3.731,0 8.333,0L39.667,0C44.269,0 48,3.731 48,8.333L48,39.667C48,44.269 44.269,48 39.667,48L8.333,48C3.731,48 0,44.269 0,39.667L0,8.333Z" style="fill:rgb(17,32,41);fill-rule:nonzero;"/>
    <path d="M10.352,10.931L12.924,10.593L14.69,22.521L12.791,22.771L12.486,20.396L12.485,20.431L10.327,20.715L9.943,23.146L8.182,23.378L10.352,10.931ZM12.288,18.807L11.542,12.894L11.508,12.899L10.579,19.032L12.288,18.807Z" style="fill:white;fill-rule:nonzero;"/>
    <path d="M15.814,10.212L18.714,9.831C19.658,9.706 20.361,9.868 20.825,10.317C21.288,10.766 21.512,11.483 21.495,12.47L21.393,18.633C21.377,19.62 21.128,20.399 20.648,20.972C20.168,21.545 19.456,21.894 18.512,22.018L15.611,22.4L15.814,10.212ZM18.506,20.281C18.817,20.24 19.054,20.116 19.219,19.91C19.394,19.701 19.486,19.388 19.493,18.97L19.598,12.633C19.605,12.215 19.523,11.925 19.354,11.762C19.196,11.597 18.961,11.535 18.651,11.576L17.684,11.703L17.539,20.409L18.506,20.281Z" style="fill:white;fill-rule:nonzero;"/>
    <path d="M22.827,9.289L28.006,8.607L27.977,10.348L24.697,10.78L24.644,14.001L27.251,13.658L27.222,15.399L24.615,15.742L24.553,19.485L27.833,19.053L27.804,20.795L22.625,21.476L22.827,9.289Z" style="fill:white;fill-rule:nonzero;"/>
    <path d="M31.639,20.463C30.706,20.586 29.997,20.413 29.511,19.944C29.025,19.476 28.79,18.754 28.806,17.779L28.913,11.372C28.929,10.397 29.189,9.61 29.693,9.011C30.196,8.411 30.914,8.051 31.847,7.928C32.779,7.805 33.488,7.978 33.974,8.447C34.46,8.916 34.695,9.638 34.679,10.613L34.573,17.02C34.556,17.995 34.296,18.782 33.793,19.381C33.289,19.98 32.571,20.341 31.639,20.463ZM31.668,18.722C32.324,18.636 32.658,18.192 32.671,17.392L32.782,10.741C32.795,9.94 32.474,9.583 31.818,9.669C31.162,9.755 30.827,10.199 30.814,11L30.703,17.651C30.69,18.451 31.011,18.809 31.668,18.722Z" style="fill:white;fill-rule:nonzero;"/>
    <path d="M8.182,26.604L8.182,39.752L15.906,39.752C17.652,39.752 19.189,39.439 20.517,38.812C21.846,38.17 22.883,37.267 23.629,36.103C24.376,34.924 24.749,33.521 24.749,31.894C24.749,30.282 24.376,28.894 23.629,27.73C22.883,26.566 21.846,25.67 20.517,25.044C20.483,25.027 20.448,25.01 20.413,24.994L8.182,26.604ZM15.682,35.633L13.465,35.633L13.465,28.2L15.682,28.2C16.428,28.2 17.077,28.342 17.629,28.626C18.197,28.909 18.637,29.327 18.95,29.879C19.264,30.432 19.42,31.103 19.42,31.894C19.42,32.7 19.264,33.387 18.95,33.954C18.637,34.506 18.197,34.924 17.629,35.208C17.077,35.491 16.428,35.633 15.682,35.633Z" style="fill:white;"/>
    <path d="M28.715,39.663C29.939,39.961 31.208,40.111 32.521,40.111C34.148,40.111 35.499,39.872 36.573,39.394C37.648,38.902 38.454,38.26 38.991,37.469C39.544,36.663 39.82,35.782 39.82,34.827C39.82,34.006 39.663,33.32 39.35,32.767C39.036,32.215 38.618,31.767 38.096,31.424C37.588,31.081 37.029,30.805 36.417,30.596C35.805,30.387 35.185,30.223 34.559,30.103C33.947,29.984 33.379,29.872 32.857,29.767C32.35,29.663 31.939,29.536 31.626,29.387C31.312,29.223 31.156,29.006 31.156,28.738C31.156,28.558 31.215,28.394 31.335,28.245C31.469,28.096 31.685,27.976 31.984,27.887C32.282,27.797 32.685,27.753 33.193,27.753C33.879,27.753 34.581,27.85 35.297,28.044C36.029,28.238 36.782,28.529 37.559,28.917L39.148,25.088C38.327,24.626 37.402,24.282 36.372,24.058C35.342,23.835 34.297,23.723 33.238,23.723C31.626,23.723 30.275,23.962 29.185,24.439C28.111,24.917 27.297,25.558 26.745,26.364C26.208,27.156 25.939,28.036 25.939,29.006C25.939,29.842 26.096,30.544 26.409,31.111C26.723,31.663 27.133,32.111 27.641,32.454C28.163,32.797 28.73,33.073 29.342,33.282C29.969,33.491 30.588,33.663 31.2,33.797C31.812,33.917 32.372,34.036 32.879,34.155C33.402,34.26 33.82,34.394 34.133,34.558C34.447,34.723 34.603,34.947 34.603,35.23C34.603,35.409 34.536,35.566 34.402,35.7C34.267,35.82 34.051,35.917 33.753,35.991C33.469,36.051 33.073,36.081 32.566,36.081C31.7,36.081 30.805,35.954 29.879,35.7C28.969,35.432 28.141,35.081 27.394,34.648L25.693,38.499C26.484,38.976 27.491,39.364 28.715,39.663Z" style="fill:white;fill-rule:nonzero;"/>
    <g transform="matrix(0.0779682,0,0,0.0779682,103.654,24.0281)">
        <g transform="matrix(1,0,0,1,-640,-200)">
            <path d="M515.4,288L553.1,288L484.4,92.7L440.7,92.7L372,288L409.7,288L425.8,239.9L499.2,239.9L515.4,288ZM435.4,211.4L461.8,132.8L463.3,132.8L489.7,211.4L435.4,211.4ZM590.4,202.2L590.4,288L555.9,288L555.9,141.6L588.9,141.6L588.9,166.5L590.6,166.5C594,158.3 599.4,151.8 606.8,147C614.2,142.2 623.4,139.8 634.3,139.8C644.4,139.8 653.2,142 660.8,146.3C668.3,150.6 674.2,156.9 678.3,165.1C682.5,173.3 684.5,183.2 684.4,194.9L684.4,288L649.9,288L649.9,200.1C649.9,190.3 647.4,182.7 642.3,177.1C637.2,171.6 630.3,168.8 621.4,168.8C615.4,168.8 610,170.1 605.3,172.8C600.6,175.4 597,179.2 594.3,184.2C591.8,189.1 590.4,195.1 590.4,202.2ZM760.5,345.9C748.1,345.9 737.5,344.2 728.6,340.9C719.7,337.6 712.6,333.1 707.2,327.5C701.8,321.9 698,315.7 696,308.9L727.1,301.4C728.5,304.3 730.5,307.1 733.2,309.9C735.9,312.7 739.5,315.1 744,317C748.5,318.9 754.3,319.8 761.2,319.8C771,319.8 779.1,317.4 785.5,312.7C791.9,308 795.1,300.2 795.1,289.4L795.1,261.7L793.4,261.7C791.6,265.3 789,268.9 785.6,272.7C782.2,276.5 777.7,279.6 772.2,282.1C766.6,284.6 759.7,285.9 751.3,285.9C740.1,285.9 729.9,283.2 720.7,277.9C711.6,272.6 704.3,264.6 699,254.1C693.6,243.5 690.9,230.3 690.9,214.3C690.9,198.2 693.6,184.6 699,173.5C704.4,162.4 711.6,154 720.8,148.2C730,142.4 740.2,139.6 751.4,139.6C760,139.6 767.1,141 772.6,143.9C778.2,146.8 782.6,150.3 785.9,154.3C789.2,158.3 791.7,162.1 793.4,165.7L795.3,165.7L795.3,141.5L829.3,141.5L829.3,290.3C829.3,302.8 826.3,313.2 820.3,321.4C814.3,329.6 806.2,335.7 795.8,339.8C785.4,343.9 773.6,345.9 760.5,345.9ZM760.8,258.8C768.1,258.8 774.3,257 779.5,253.5C784.6,249.9 788.6,244.8 791.2,238.2C793.9,231.5 795.2,223.5 795.2,214.2C795.2,205 793.9,196.9 791.2,190C788.6,183.1 784.7,177.7 779.6,173.8C774.5,170 768.2,168 760.8,168C753.1,168 746.7,170 741.5,174C736.4,178 732.5,183.5 729.9,190.4C727.3,197.4 726,205.3 726,214.1C726,223.1 727.3,230.9 730,237.6C732.6,244.3 736.5,249.5 741.7,253.2C746.8,256.9 753.2,258.8 760.8,258.8ZM933.8,226.4L933.8,141.6L968.3,141.6L968.3,288L934.8,288L934.8,262L933.3,262C930,270.2 924.6,276.9 917,282.1C909.5,287.3 900.2,289.9 889.2,289.9C879.6,289.9 871.1,287.8 863.8,283.5C856.5,279.2 850.7,273 846.6,264.7C842.5,256.5 840.4,246.5 840.4,234.8L840.4,141.6L875,141.6L875,229.5C875,238.8 877.5,246.2 882.6,251.6C887.7,257.1 894.4,259.8 902.6,259.8C907.7,259.8 912.6,258.6 917.4,256.1C922.2,253.6 926.1,249.9 929.2,245C932.3,240 933.8,233.8 933.8,226.4ZM1014.1,92.7L1014.1,288L979.6,288L979.6,92.7L1014.1,92.7ZM1068.9,290.9C1059.6,290.9 1051.3,289.2 1043.9,285.9C1036.5,282.6 1030.6,277.6 1026.4,271.1C1022.1,264.6 1020,256.5 1020,246.9C1020,238.6 1021.5,231.8 1024.6,226.4C1027.7,221 1031.8,216.7 1037.1,213.4C1042.4,210.2 1048.3,207.7 1055,206C1061.6,204.3 1068.5,203.1 1075.6,202.3C1084.2,201.4 1091.1,200.6 1096.5,199.9C1101.8,199.2 1105.7,198 1108.2,196.5C1110.6,194.9 1111.9,192.5 1111.9,189.2L1111.9,188.6C1111.9,181.4 1109.8,175.9 1105.5,171.9C1101.2,168 1095.1,166 1087.1,166C1078.6,166 1072,167.8 1067,171.5C1062.1,175.2 1058.8,179.5 1057,184.6L1024.8,180C1027.3,171.1 1031.5,163.7 1037.4,157.6C1043.2,151.6 1050.4,147.1 1058.8,144.1C1067.3,141.1 1076.6,139.6 1086.8,139.6C1093.9,139.6 1100.9,140.4 1107.9,142.1C1114.9,143.8 1121.3,146.5 1127.1,150.3C1132.9,154.1 1137.5,159.2 1141.1,165.7C1144.6,172.2 1146.4,180.3 1146.4,190L1146.4,288L1113.2,288L1113.2,267.9L1112.1,267.9C1110,272 1107.1,275.8 1103.3,279.3C1099.5,282.8 1094.8,285.7 1089.1,287.8C1083.2,289.9 1076.6,290.9 1068.9,290.9ZM1077.9,265.6C1084.8,265.6 1090.8,264.2 1095.9,261.5C1101,258.7 1104.9,255.1 1107.7,250.5C1110.5,245.9 1111.8,240.9 1111.8,235.5L1111.8,218.2C1110.7,219.1 1108.9,219.9 1106.3,220.7C1103.7,221.5 1100.9,222.1 1097.7,222.7C1094.5,223.3 1091.4,223.8 1088.3,224.2C1085.2,224.6 1082.5,225 1080.2,225.3C1075.1,226 1070.4,227.1 1066.4,228.7C1062.3,230.3 1059.1,232.5 1056.8,235.3C1054.4,238.1 1053.3,241.8 1053.3,246.2C1053.3,252.6 1055.6,257.4 1060.3,260.6C1064.8,264 1070.7,265.6 1077.9,265.6ZM1156.9,288L1156.9,141.6L1190.4,141.6L1190.4,166L1191.9,166C1194.6,157.5 1199.2,151 1205.7,146.4C1212.2,141.8 1219.7,139.5 1228.1,139.5C1230,139.5 1232.2,139.6 1234.5,139.7C1236.9,139.9 1238.9,140.1 1240.5,140.4L1240.5,172.1C1239,171.6 1236.7,171.1 1233.6,170.7C1230.5,170.3 1227.4,170.1 1224.5,170.1C1218.2,170.1 1212.6,171.5 1207.6,174.2C1202.6,176.9 1198.7,180.6 1195.8,185.4C1192.9,190.2 1191.5,195.7 1191.5,201.9L1191.5,288L1156.9,288ZM311.8,101.7L302,255.6L208.3,53.8L311.8,101.7ZM246.9,300.7L176.1,341.1L105.3,300.7L119.7,265.8L232.5,265.8L246.9,300.7ZM176.1,130.4L213.2,220.6L139,220.6L176.1,130.4ZM50.1,255.6L40.4,101.7L143.9,53.8L50.1,255.6Z" style="fill:rgb(15,15,17);fill-rule:nonzero;"/>
        </g>
    </g>
</svg>
